<svg width="146" height="42" viewBox="0 0 146 42" fill="none" xmlns="http://www.w3.org/2000/svg">
<path d="M144.976 37.1551C144.976 39.3933 143.125 41.2064 140.836 41.2064H5.35221C3.06408 41.2064 1.20679 39.3933 1.20679 37.1551V4.84779C1.20679 2.61062 3.06408 0.79126 5.35221 0.79126H140.835C143.125 0.79126 144.975 2.61062 144.975 4.84779L144.976 37.1551Z" fill="black"/>
<path d="M140.4 0.84131C142.893 0.84131 144.922 2.81925 144.922 5.25V36.75C144.922 39.1807 142.893 41.1587 140.4 41.1587H5.78476C3.29168 41.1587 1.26303 39.1807 1.26303 36.75V5.25C1.26303 2.81925 3.29168 0.84131 5.78476 0.84131H140.4ZM140.4 -2.50449e-06H5.78476C2.82457 -2.50449e-06 0.400146 2.36381 0.400146 5.25V36.75C0.400146 39.6362 2.82457 42 5.78476 42H140.4C143.36 42 145.785 39.6362 145.785 36.75V5.25C145.785 2.36381 143.36 -2.50449e-06 140.4 -2.50449e-06Z" fill="#A6A6A6"/>
<path d="M32.8471 20.7732C32.8159 17.3891 35.6891 15.7427 35.8205 15.666C34.1933 13.3529 31.6711 13.0368 30.7848 13.0116C28.6665 12.7943 26.6118 14.2475 25.5327 14.2475C24.4321 14.2475 22.7704 13.0326 20.9794 13.0683C18.6748 13.103 16.5188 14.4039 15.3364 16.4241C12.8961 20.5433 14.7161 26.5965 17.0541 29.9261C18.2236 31.5567 19.5902 33.3774 21.379 33.3134C23.129 33.243 23.7827 32.2256 25.8945 32.2256C27.987 32.2256 28.6008 33.3134 30.4251 33.2724C32.3033 33.243 33.4858 31.6344 34.6144 29.9891C35.9659 28.1201 36.5087 26.2794 36.5302 26.1849C36.4861 26.1702 32.8827 24.8294 32.8471 20.7732Z" fill="white"/>
<path d="M29.401 10.8213C30.3422 9.67369 30.9862 8.11234 30.8074 6.52789C29.4451 6.58669 27.7414 7.44664 26.7604 8.56909C25.8924 9.55819 25.117 11.1794 25.3173 12.704C26.8476 12.8153 28.4188 11.9511 29.401 10.8213Z" fill="white"/>
<path d="M58.1727 33.0782H55.727L54.3873 28.9737H49.7307L48.4546 33.0782H46.0735L50.687 19.1048H53.5366L58.1727 33.0782ZM53.9835 27.2517L52.7719 23.603C52.6438 23.2302 52.4036 22.3524 52.0493 20.9706H52.0063C51.8652 21.5649 51.6379 22.4427 51.3256 23.603L50.1356 27.2517H53.9835Z" fill="white"/>
<path d="M70.0371 27.9155C70.0371 29.6291 69.5621 30.9836 68.6123 31.9779C67.7615 32.8631 66.7051 33.3051 65.444 33.3051C64.0827 33.3051 63.1049 32.8284 62.5094 31.875H62.4663V37.1828H60.1703V26.3184C60.1703 25.2411 60.1412 24.1355 60.0852 23.0015H62.1044L62.2326 24.5985H62.2757C63.0414 23.3952 64.2034 22.7946 65.7627 22.7946C66.9818 22.7946 67.9995 23.264 68.8137 24.2037C69.63 25.1445 70.0371 26.3814 70.0371 27.9155ZM67.698 27.9974C67.698 27.0167 67.4718 26.2082 67.0174 25.5719C66.5209 24.9083 65.8543 24.5765 65.0186 24.5765C64.4521 24.5765 63.9374 24.7613 63.4775 25.1256C63.0166 25.4931 62.715 25.973 62.574 26.5673C62.5029 26.8445 62.4674 27.0713 62.4674 27.2498V28.9298C62.4674 29.6627 62.6978 30.2811 63.1587 30.7862C63.6197 31.2912 64.2184 31.5432 64.9551 31.5432C65.8198 31.5432 66.4929 31.2177 66.9743 30.5688C67.4567 29.9189 67.698 29.0621 67.698 27.9974Z" fill="white"/>
<path d="M81.9232 27.9155C81.9232 29.6291 81.4483 30.9836 80.4973 31.9779C79.6476 32.8631 78.5912 33.3051 77.3301 33.3051C75.9689 33.3051 74.991 32.8284 74.3966 31.875H74.3535V37.1828H72.0575V26.3184C72.0575 25.2411 72.0284 24.1355 71.9724 23.0015H73.9916L74.1198 24.5985H74.1629C74.9275 23.3952 76.0895 22.7946 77.65 22.7946C78.868 22.7946 79.8856 23.264 80.702 24.2037C81.515 25.1445 81.9232 26.3814 81.9232 27.9155ZM79.5841 27.9974C79.5841 27.0167 79.3569 26.2082 78.9024 25.5719C78.406 24.9083 77.7415 24.5765 76.9047 24.5765C76.3372 24.5765 75.8235 24.7613 75.3626 25.1256C74.9016 25.4931 74.6012 25.973 74.4601 26.5673C74.3901 26.8445 74.3535 27.0713 74.3535 27.2498V28.9298C74.3535 29.6627 74.5839 30.2811 75.0427 30.7862C75.5036 31.2902 76.1024 31.5432 76.8412 31.5432C77.706 31.5432 78.379 31.2177 78.8604 30.5688C79.3429 29.9189 79.5841 29.0621 79.5841 27.9974Z" fill="white"/>
<path d="M95.2127 29.159C95.2127 30.3476 94.7895 31.3146 93.9398 32.0612C93.0061 32.877 91.7063 33.2844 90.036 33.2844C88.4938 33.2844 87.2575 32.9946 86.3217 32.414L86.8537 30.5481C87.8617 31.1424 88.9677 31.4406 90.1727 31.4406C91.0375 31.4406 91.7106 31.2495 92.1941 30.8694C92.6755 30.4893 92.9157 29.979 92.9157 29.3427C92.9157 28.7757 92.7175 28.298 92.3201 27.9105C91.9249 27.5231 91.2647 27.1629 90.3429 26.8301C87.8337 25.9176 86.5801 24.581 86.5801 22.8233C86.5801 21.6746 87.0195 20.7327 87.8994 19.9998C88.776 19.2659 89.9455 18.8994 91.408 18.8994C92.7121 18.8994 93.7955 19.121 94.6603 19.563L94.0863 21.3879C93.2786 20.9595 92.3653 20.7453 91.3433 20.7453C90.5357 20.7453 89.9046 20.9396 89.4523 21.326C89.07 21.6714 88.8783 22.0925 88.8783 22.5912C88.8783 23.1435 89.0969 23.6003 89.5363 23.9594C89.9186 24.2912 90.6132 24.6503 91.6212 25.0377C92.8543 25.5218 93.76 26.0877 94.3426 26.7366C94.923 27.3834 95.2127 28.193 95.2127 29.159Z" fill="white"/>
<path d="M102.804 24.6805H100.273V29.5725C100.273 30.8167 100.719 31.4383 101.613 31.4383C102.023 31.4383 102.363 31.4037 102.632 31.3344L102.696 33.0343C102.244 33.1992 101.648 33.2821 100.91 33.2821C100.004 33.2821 99.2951 33.0123 98.7835 32.4736C98.2741 31.9339 98.0178 31.0288 98.0178 29.7573V24.6784H96.5101V22.9984H98.0178V21.1536L100.273 20.49V22.9984H102.804V24.6805Z" fill="white"/>
<path d="M114.224 27.9566C114.224 29.5053 113.769 30.7769 112.862 31.7712C111.911 32.795 110.649 33.3053 109.076 33.3053C107.56 33.3053 106.352 32.8149 105.452 31.8342C104.552 30.8535 104.102 29.6156 104.102 28.1235C104.102 26.5622 104.565 25.2833 105.494 24.2889C106.421 23.2935 107.673 22.7958 109.246 22.7958C110.762 22.7958 111.982 23.2862 112.903 24.2679C113.784 25.2203 114.224 26.4498 114.224 27.9566ZM111.841 28.029C111.841 27.0998 111.638 26.3028 111.225 25.6382C110.744 24.8339 110.056 24.4328 109.164 24.4328C108.241 24.4328 107.54 24.8349 107.059 25.6382C106.646 26.3039 106.443 27.1134 106.443 28.071C106.443 29.0003 106.646 29.7972 107.059 30.4608C107.555 31.2651 108.249 31.6662 109.144 31.6662C110.02 31.6662 110.708 31.2567 111.205 30.4398C111.628 29.7626 111.841 28.9572 111.841 28.029Z" fill="white"/>
<path d="M121.686 24.9702C121.459 24.9293 121.216 24.9083 120.962 24.9083C120.155 24.9083 119.53 25.2054 119.091 25.8008C118.708 26.3258 118.517 26.9894 118.517 27.7905V33.0773H116.222L116.243 26.1746C116.243 25.0133 116.214 23.9559 116.157 23.0025H118.157L118.241 24.9303H118.304C118.547 24.2678 118.929 23.7344 119.452 23.3343C119.964 22.9742 120.516 22.7946 121.112 22.7946C121.324 22.7946 121.516 22.8093 121.686 22.8356V24.9702Z" fill="white"/>
<path d="M131.953 27.5624C131.953 27.9635 131.926 28.3016 131.869 28.5778H124.981C125.008 29.5732 125.341 30.3344 125.98 30.8594C126.561 31.3288 127.312 31.564 128.233 31.564C129.253 31.564 130.184 31.4054 131.02 31.0873L131.38 32.6413C130.402 33.0571 129.248 33.2639 127.916 33.2639C126.313 33.2639 125.055 32.804 124.14 31.8853C123.227 30.9665 122.769 29.7328 122.769 28.1851C122.769 26.6657 123.194 25.4005 124.046 24.3914C124.938 23.3141 126.143 22.7755 127.659 22.7755C129.149 22.7755 130.276 23.3141 131.042 24.3914C131.648 25.2472 131.953 26.3056 131.953 27.5624ZM129.764 26.9818C129.779 26.3182 129.629 25.7449 129.318 25.2608C128.92 24.6382 128.31 24.3274 127.488 24.3274C126.738 24.3274 126.127 24.6308 125.661 25.2398C125.278 25.7239 125.051 26.3045 124.981 26.9807H129.764V26.9818Z" fill="white"/>
<path d="M53.2261 10.5066C53.2261 11.7425 52.846 12.6728 52.0867 13.2975C51.3835 13.874 50.3841 14.1627 49.0896 14.1627C48.4478 14.1627 47.8986 14.1354 47.4387 14.0808V7.32829C48.0386 7.23379 48.6847 7.18549 49.3826 7.18549C50.6156 7.18549 51.545 7.44694 52.1718 7.96984C52.874 8.56099 53.2261 9.40624 53.2261 10.5066ZM52.0361 10.5371C52.0361 9.73594 51.8186 9.12169 51.3835 8.69329C50.9484 8.26594 50.313 8.05174 49.4763 8.05174C49.1209 8.05174 48.8183 8.07484 48.5673 8.12314V13.2566C48.7063 13.2776 48.9604 13.287 49.3298 13.287C50.1935 13.287 50.8601 13.0529 51.3297 12.5846C51.7992 12.1163 52.0361 11.4338 52.0361 10.5371Z" fill="white"/>
<path d="M59.536 11.5858C59.536 12.3471 59.3131 12.9708 58.8672 13.4601C58.3998 13.963 57.7806 14.214 57.0074 14.214C56.2622 14.214 55.6688 13.9735 55.2262 13.4905C54.7846 13.0086 54.5638 12.4006 54.5638 11.6677C54.5638 10.9012 54.7911 10.2723 55.2477 9.78405C55.7043 9.2958 56.3182 9.05115 57.0914 9.05115C57.8366 9.05115 58.4354 9.2916 58.8888 9.77355C59.3195 10.2418 59.536 10.8466 59.536 11.5858ZM58.3654 11.6215C58.3654 11.1648 58.2642 10.7731 58.0628 10.4466C57.8258 10.0518 57.4888 9.8544 57.0505 9.8544C56.5971 9.8544 56.2525 10.0518 56.0155 10.4466C55.8131 10.7731 55.7129 11.1711 55.7129 11.6415C55.7129 12.0982 55.8142 12.4899 56.0155 12.8164C56.26 13.2112 56.6003 13.4086 57.0397 13.4086C57.4705 13.4086 57.8086 13.2081 58.052 12.8059C58.2609 12.4731 58.3654 12.0783 58.3654 11.6215Z" fill="white"/>
<path d="M67.9965 9.15161L66.408 14.1013H65.3742L64.7162 11.952C64.5493 11.4154 64.4136 10.882 64.308 10.3528H64.2876C64.1896 10.8967 64.0539 11.4291 63.8794 11.952L63.1805 14.1013H62.1348L60.6411 9.15161H61.801L62.375 11.5047C62.5139 12.0612 62.628 12.5914 62.7196 13.0933H62.74C62.824 12.6796 62.963 12.1525 63.159 11.5152L63.8794 9.15266H64.7991L65.4894 11.4648C65.6563 12.0286 65.792 12.5715 65.8965 13.0944H65.9277C66.0042 12.5851 66.1194 12.0423 66.2723 11.4648L66.8883 9.15266H67.9965V9.15161Z" fill="white"/>
<path d="M73.8472 14.1019H72.7186V11.2669C72.7186 10.3933 72.3783 9.95647 71.6955 9.95647C71.3606 9.95647 71.0903 10.0762 70.8803 10.3166C70.6724 10.5571 70.5669 10.8406 70.5669 11.165V14.1008H69.4383V10.5665C69.4383 10.1318 69.4243 9.66037 69.3973 9.15007H70.3892L70.442 9.92392H70.4732C70.6046 9.68347 70.8006 9.48502 71.058 9.32647C71.3638 9.14167 71.7063 9.04822 72.081 9.04822C72.5549 9.04822 72.949 9.19732 73.2624 9.49657C73.6522 9.86302 73.8472 10.4101 73.8472 11.1367V14.1019Z" fill="white"/>
<path d="M76.9587 14.102H75.8312V6.8811H76.9587V14.102Z" fill="white"/>
<path d="M83.6039 11.5858C83.6039 12.3471 83.3809 12.9708 82.9351 13.4601C82.4677 13.963 81.8474 14.214 81.0753 14.214C80.329 14.214 79.7356 13.9735 79.294 13.4905C78.8525 13.0086 78.6317 12.4006 78.6317 11.6677C78.6317 10.9012 78.8589 10.2723 79.3156 9.78405C79.7722 9.2958 80.386 9.05115 81.1582 9.05115C81.9045 9.05115 82.5022 9.2916 82.9566 9.77355C83.3874 10.2418 83.6039 10.8466 83.6039 11.5858ZM82.4322 11.6215C82.4322 11.1648 82.3309 10.7731 82.1296 10.4466C81.8937 10.0518 81.5556 9.8544 81.1183 9.8544C80.6639 9.8544 80.3193 10.0518 80.0834 10.4466C79.8809 10.7731 79.7808 11.1711 79.7808 11.6415C79.7808 12.0982 79.882 12.4899 80.0834 12.8164C80.3279 13.2112 80.6682 13.4086 81.1076 13.4086C81.5383 13.4086 81.8754 13.2081 82.1188 12.8059C82.3288 12.4731 82.4322 12.0783 82.4322 11.6215Z" fill="white"/>
<path d="M89.0656 14.1016H88.0523L87.9683 13.5315H87.937C87.5903 13.9861 87.0959 14.214 86.4541 14.214C85.9749 14.214 85.5872 14.0638 85.2953 13.7656C85.0304 13.4947 84.8979 13.1577 84.8979 12.7576C84.8979 12.1528 85.1564 11.6919 85.6766 11.3727C86.1956 11.0535 86.9258 10.897 87.866 10.9044V10.812C87.866 10.1599 87.5149 9.83445 86.8116 9.83445C86.3109 9.83445 85.8693 9.9573 85.4881 10.2009L85.2587 9.4785C85.7304 9.19395 86.313 9.05115 87.0001 9.05115C88.3269 9.05115 88.9924 9.73365 88.9924 11.0986V12.9214C88.9924 13.416 89.0172 13.8097 89.0656 14.1016ZM87.8939 12.4006V11.6373C86.649 11.6163 86.0266 11.9491 86.0266 12.6348C86.0266 12.8931 86.0976 13.0863 86.243 13.2154C86.3884 13.3446 86.5736 13.4086 86.7944 13.4086C87.0421 13.4086 87.2736 13.332 87.4847 13.1797C87.6969 13.0264 87.8272 12.8322 87.8756 12.5938C87.8875 12.5403 87.8939 12.4752 87.8939 12.4006Z" fill="white"/>
<path d="M95.4802 14.102H94.4786L94.4259 13.3071H94.3946C94.0748 13.9119 93.5299 14.2143 92.7642 14.2143C92.1525 14.2143 91.6431 13.9802 91.2393 13.5119C90.8354 13.0436 90.634 12.4356 90.634 11.6891C90.634 10.8879 90.8526 10.239 91.292 9.7434C91.7174 9.2814 92.2386 9.0504 92.8589 9.0504C93.5406 9.0504 94.0177 9.27405 94.2891 9.7224H94.3106V6.8811H95.4403V12.7685C95.4403 13.2504 95.4533 13.6946 95.4802 14.102ZM94.3106 12.0146V11.1893C94.3106 11.0465 94.2999 10.931 94.2794 10.8428C94.2159 10.5782 94.0791 10.3556 93.8713 10.176C93.6613 9.99645 93.4082 9.90615 93.1163 9.90615C92.6953 9.90615 92.3657 10.0689 92.1234 10.3955C91.8833 10.722 91.7616 11.1389 91.7616 11.6481C91.7616 12.1374 91.8768 12.5343 92.1083 12.8399C92.3528 13.1654 92.6823 13.3281 93.0948 13.3281C93.4653 13.3281 93.7614 13.1927 93.9865 12.9207C94.204 12.6698 94.3106 12.3674 94.3106 12.0146Z" fill="white"/>
<path d="M105.13 11.5858C105.13 12.3471 104.907 12.9708 104.461 13.4601C103.993 13.963 103.375 14.214 102.601 14.214C101.857 14.214 101.263 13.9735 100.82 13.4905C100.378 13.0086 100.157 12.4006 100.157 11.6677C100.157 10.9012 100.385 10.2723 100.841 9.78405C101.298 9.2958 101.912 9.05115 102.686 9.05115C103.43 9.05115 104.03 9.2916 104.482 9.77355C104.913 10.2418 105.13 10.8466 105.13 11.5858ZM103.96 11.6215C103.96 11.1648 103.859 10.7731 103.657 10.4466C103.419 10.0518 103.083 9.8544 102.644 9.8544C102.192 9.8544 101.847 10.0518 101.609 10.4466C101.407 10.7731 101.306 11.1711 101.306 11.6415C101.306 12.0982 101.408 12.4899 101.609 12.8164C101.854 13.2112 102.194 13.4086 102.633 13.4086C103.064 13.4086 103.403 13.2081 103.647 12.8059C103.854 12.4731 103.96 12.0783 103.96 11.6215Z" fill="white"/>
<path d="M111.201 14.1019H110.073V11.2669C110.073 10.3933 109.733 9.95647 109.049 9.95647C108.714 9.95647 108.444 10.0762 108.235 10.3166C108.026 10.5571 107.922 10.8406 107.922 11.165V14.1008H106.792V10.5665C106.792 10.1318 106.779 9.66037 106.752 9.15007H107.743L107.796 9.92392H107.827C107.959 9.68347 108.155 9.48502 108.412 9.32647C108.719 9.14167 109.06 9.04822 109.436 9.04822C109.909 9.04822 110.303 9.19732 110.616 9.49657C111.007 9.86302 111.201 10.4101 111.201 11.1367V14.1019Z" fill="white"/>
<path d="M118.795 9.97644H117.552V12.3809C117.552 12.992 117.773 13.2976 118.21 13.2976C118.412 13.2976 118.58 13.2808 118.713 13.2461L118.742 14.0809C118.519 14.1628 118.226 14.2037 117.865 14.2037C117.419 14.2037 117.073 14.0714 116.822 13.8068C116.57 13.5422 116.445 13.097 116.445 12.4723V9.97644H115.703V9.15219H116.445V8.24499L117.551 7.91949V9.15115H118.794V9.97644H118.795Z" fill="white"/>
<path d="M124.771 14.102H123.642V11.288C123.642 10.4007 123.301 9.95655 122.62 9.95655C122.096 9.95655 121.739 10.2138 121.543 10.7283C121.509 10.8365 121.49 10.9688 121.49 11.1242V14.1009H120.362V6.8811H121.49V9.86415H121.512C121.867 9.3213 122.376 9.0504 123.036 9.0504C123.504 9.0504 123.89 9.1995 124.197 9.49875C124.58 9.8715 124.771 10.4259 124.771 11.1588V14.102Z" fill="white"/>
<path d="M130.934 11.3931C130.934 11.5905 130.919 11.7564 130.892 11.8919H127.507C127.522 12.3812 127.684 12.7539 127.997 13.0122C128.284 13.2432 128.653 13.3587 129.106 13.3587C129.606 13.3587 130.063 13.281 130.474 13.1246L130.651 13.889C130.17 14.0927 129.603 14.1945 128.947 14.1945C128.161 14.1945 127.542 13.9688 127.094 13.5173C126.644 13.0658 126.421 12.4599 126.421 11.6997C126.421 10.9532 126.629 10.3316 127.048 9.83597C127.485 9.30677 128.076 9.04218 128.822 9.04218C129.552 9.04218 130.107 9.30677 130.482 9.83597C130.784 10.256 130.934 10.7757 130.934 11.3931ZM129.857 11.1086C129.866 10.782 129.792 10.5006 129.639 10.2633C129.443 9.95778 129.144 9.80448 128.74 9.80448C128.372 9.80448 128.072 9.95358 127.842 10.2528C127.655 10.4912 127.544 10.7757 127.507 11.1086H129.857Z" fill="white"/>
</svg>
