<svg width="108" height="32" viewBox="0 0 108 32" fill="none" xmlns="http://www.w3.org/2000/svg">
<path d="M107.227 27.944C107.227 29.5987 105.858 30.9391 104.166 30.9391H3.9995C2.30783 30.9391 0.934692 29.5987 0.934692 27.944V4.05841C0.934692 2.40442 2.30783 1.05933 3.9995 1.05933H104.165C105.858 1.05933 107.226 2.40442 107.226 4.05841L107.227 27.944Z" fill="black"/>
<path d="M103.844 1.0963C105.687 1.0963 107.187 2.55864 107.187 4.35575V27.6444C107.187 29.4415 105.687 30.9039 103.844 30.9039H4.31947C2.47628 30.9039 0.976451 29.4415 0.976451 27.6444V4.35575C0.976451 2.55864 2.47628 1.0963 4.31947 1.0963H103.844ZM103.844 0.474302H4.31947C2.13093 0.474302 0.338501 2.22192 0.338501 4.35575V27.6444C0.338501 29.7783 2.13093 31.5259 4.31947 31.5259H103.844C106.032 31.5259 107.825 29.7783 107.825 27.6444V4.35575C107.825 2.22192 106.032 0.474302 103.844 0.474302Z" fill="#A6A6A6"/>
<path d="M24.3268 15.8325C24.3037 13.3305 26.428 12.1133 26.5251 12.0566C25.3221 10.3464 23.4574 10.1128 22.8021 10.0941C21.236 9.93343 19.7169 11.0078 18.9191 11.0078C18.1054 11.0078 16.8768 10.1096 15.5528 10.136C13.8489 10.1617 12.2549 11.1235 11.3807 12.6171C9.57653 15.6624 10.9221 20.1378 12.6506 22.5994C13.5153 23.8049 14.5257 25.151 15.8482 25.1037C17.142 25.0517 17.6253 24.2994 19.1866 24.2994C20.7336 24.2994 21.1874 25.1037 22.5362 25.0734C23.9247 25.0517 24.799 23.8624 25.6334 22.6459C26.6326 21.2642 27.0339 19.9033 27.0498 19.8335C27.0172 19.8226 24.3531 18.8313 24.3268 15.8325Z" fill="white"/>
<path d="M21.779 8.47478C22.4749 7.6263 22.951 6.47196 22.8188 5.30054C21.8117 5.34401 20.5521 5.97979 19.8267 6.80964C19.185 7.54091 18.6117 8.7395 18.7598 9.86667C19.8912 9.94896 21.0529 9.31007 21.779 8.47478Z" fill="white"/>
<path d="M43.0513 24.9297H41.2432L40.2527 21.8952H36.81L35.8665 24.9297H34.1061L37.517 14.5989H39.6237L43.0513 24.9297ZM39.9541 20.6221L39.0584 17.9245C38.9637 17.6489 38.7861 16.9999 38.5242 15.9783H38.4923C38.388 16.4177 38.22 17.0667 37.9891 17.9245L37.1093 20.6221H39.9541Z" fill="white"/>
<path d="M51.8228 21.1126C51.8228 22.3795 51.4717 23.3809 50.7695 24.1161C50.1405 24.7705 49.3594 25.0973 48.4271 25.0973C47.4207 25.0973 46.6977 24.7449 46.2574 24.04H46.2256V27.9642H44.5281V19.9319C44.5281 19.1354 44.5066 18.318 44.4652 17.4796H45.9581L46.0528 18.6603H46.0847C46.6508 17.7707 47.5099 17.3267 48.6627 17.3267C49.564 17.3267 50.3164 17.6737 50.9184 18.3684C51.5219 19.064 51.8228 19.9785 51.8228 21.1126ZM50.0935 21.1732C50.0935 20.4481 49.9263 19.8504 49.5903 19.3799C49.2233 18.8893 48.7304 18.644 48.1126 18.644C47.6938 18.644 47.3132 18.7806 46.9732 19.05C46.6324 19.3217 46.4095 19.6765 46.3052 20.1159C46.2527 20.3208 46.2264 20.4885 46.2264 20.6205V21.8625C46.2264 22.4044 46.3968 22.8616 46.7375 23.235C47.0783 23.6084 47.521 23.7947 48.0656 23.7947C48.7049 23.7947 49.2026 23.5541 49.5585 23.0743C49.9152 22.5938 50.0935 21.9603 50.0935 21.1732Z" fill="white"/>
<path d="M60.6107 21.1126C60.6107 22.3795 60.2596 23.3809 59.5566 24.1161C58.9284 24.7705 58.1473 25.0973 57.215 25.0973C56.2086 25.0973 55.4856 24.7449 55.0461 24.04H55.0143V27.9642H53.3168V19.9319C53.3168 19.1354 53.2953 18.318 53.2539 17.4796H54.7468L54.8415 18.6603H54.8734C55.4387 17.7707 56.2978 17.3267 57.4514 17.3267C58.3519 17.3267 59.1043 17.6737 59.7079 18.3684C60.309 19.064 60.6107 19.9785 60.6107 21.1126ZM58.8814 21.1732C58.8814 20.4481 58.7134 19.8504 58.3774 19.3799C58.0104 18.8893 57.5191 18.644 56.9005 18.644C56.4809 18.644 56.1011 18.7806 55.7603 19.05C55.4196 19.3217 55.1974 19.6765 55.0931 20.1159C55.0414 20.3208 55.0143 20.4885 55.0143 20.6205V21.8625C55.0143 22.4044 55.1847 22.8616 55.5239 23.235C55.8646 23.6076 56.3073 23.7947 56.8535 23.7947C57.4928 23.7947 57.9905 23.5541 58.3464 23.0743C58.7031 22.5938 58.8814 21.9603 58.8814 21.1732Z" fill="white"/>
<path d="M70.4352 22.0319C70.4352 22.9107 70.1223 23.6256 69.4941 24.1776C68.8038 24.7807 67.8428 25.0819 66.6079 25.0819C65.4677 25.0819 64.5537 24.8677 63.8618 24.4384L64.2551 23.0589C65.0004 23.4983 65.8181 23.7188 66.709 23.7188C67.3484 23.7188 67.846 23.5775 68.2035 23.2965C68.5594 23.0155 68.7369 22.6382 68.7369 22.1678C68.7369 21.7486 68.5904 21.3953 68.2966 21.1089C68.0044 20.8224 67.5163 20.5562 66.8348 20.3101C64.9797 19.6355 64.0529 18.6473 64.0529 17.3478C64.0529 16.4985 64.3778 15.8022 65.0282 15.2603C65.6763 14.7177 66.541 14.4468 67.6222 14.4468C68.5864 14.4468 69.3874 14.6106 70.0268 14.9374L69.6024 16.2866C69.0052 15.9699 68.3301 15.8115 67.5745 15.8115C66.9773 15.8115 66.5108 15.9551 66.1764 16.2408C65.8937 16.4962 65.752 16.8075 65.752 17.1762C65.752 17.5845 65.9136 17.9222 66.2385 18.1877C66.5211 18.433 67.0347 18.6985 67.7799 18.985C68.6915 19.3428 69.3611 19.7613 69.7919 20.241C70.221 20.7192 70.4352 21.3177 70.4352 22.0319Z" fill="white"/>
<path d="M76.0477 18.721H74.1767V22.3377C74.1767 23.2576 74.5063 23.7172 75.1671 23.7172C75.4705 23.7172 75.7221 23.6916 75.9211 23.6403L75.9681 24.8971C75.6337 25.019 75.1934 25.0803 74.648 25.0803C73.9776 25.0803 73.4537 24.8808 73.0755 24.4826C72.6989 24.0836 72.5094 23.4144 72.5094 22.4743V18.7194H71.3948V17.4774H72.5094V16.1134L74.1767 15.6228V17.4774H76.0477V18.721Z" fill="white"/>
<path d="M84.4912 21.1431C84.4912 22.2881 84.1552 23.2282 83.4849 23.9634C82.7818 24.7202 81.8487 25.0975 80.6854 25.0975C79.5644 25.0975 78.6719 24.735 78.0062 24.0099C77.3406 23.2849 77.0078 22.3696 77.0078 21.2665C77.0078 20.1122 77.3502 19.1667 78.0373 18.4315C78.7228 17.6956 79.648 17.3276 80.8112 17.3276C81.9323 17.3276 82.8344 17.6902 83.5151 18.416C84.1664 19.1201 84.4912 20.0291 84.4912 21.1431ZM82.7301 21.1967C82.7301 20.5096 82.5796 19.9204 82.2746 19.4291C81.9187 18.8344 81.41 18.5379 80.7507 18.5379C80.0684 18.5379 79.5501 18.8352 79.1942 19.4291C78.8892 19.9212 78.7387 20.5197 78.7387 21.2277C78.7387 21.9147 78.8892 22.5039 79.1942 22.9945C79.5612 23.5892 80.074 23.8857 80.7356 23.8857C81.3837 23.8857 81.8925 23.583 82.2595 22.979C82.5724 22.4783 82.7301 21.8829 82.7301 21.1967Z" fill="white"/>
<path d="M90.0087 18.9351C89.8407 18.9049 89.6616 18.8893 89.4737 18.8893C88.8765 18.8893 88.4147 19.109 88.0899 19.5492C87.8072 19.9373 87.6655 20.4279 87.6655 21.0202V24.9289H85.9688L85.9847 19.8255C85.9847 18.967 85.9632 18.1852 85.921 17.4804H87.3996L87.4617 18.9056H87.5086C87.6878 18.4158 87.9704 18.0214 88.3574 17.7257C88.7356 17.4594 89.144 17.3267 89.5843 17.3267C89.7412 17.3267 89.8829 17.3375 90.0087 17.3569V18.9351Z" fill="white"/>
<path d="M97.5989 20.8516C97.5989 21.1481 97.579 21.3981 97.5368 21.6023H92.4443C92.4642 22.3382 92.7103 22.901 93.1832 23.2892C93.6124 23.6362 94.1673 23.81 94.8488 23.81C95.6028 23.81 96.2908 23.6928 96.9094 23.4576L97.1753 24.6065C96.4524 24.9139 95.5989 25.0669 94.614 25.0669C93.4292 25.0669 92.4993 24.7268 91.8225 24.0476C91.1473 23.3683 90.809 22.4562 90.809 21.3119C90.809 20.1887 91.1235 19.2532 91.7532 18.5072C92.4125 17.7107 93.3034 17.3125 94.4245 17.3125C95.5256 17.3125 96.3592 17.7107 96.9253 18.5072C97.3736 19.1399 97.5989 19.9224 97.5989 20.8516ZM95.9802 20.4223C95.9914 19.9317 95.8807 19.5078 95.6506 19.15C95.3568 18.6896 94.9054 18.4599 94.2979 18.4599C93.7429 18.4599 93.2915 18.6842 92.9467 19.1345C92.6641 19.4923 92.4961 19.9216 92.4443 20.4215H95.9802V20.4223Z" fill="white"/>
<path d="M39.3937 8.24202C39.3937 9.15572 39.1127 9.84351 38.5514 10.3054C38.0315 10.7316 37.2926 10.9451 36.3356 10.9451C35.861 10.9451 35.455 10.9249 35.115 10.8845V5.8922C35.5585 5.82233 36.0362 5.78662 36.5521 5.78662C37.4638 5.78662 38.1509 5.97992 38.6143 6.36651C39.1334 6.80356 39.3937 7.42847 39.3937 8.24202ZM38.5139 8.26454C38.5139 7.67223 38.3531 7.2181 38.0315 6.90137C37.7098 6.58542 37.24 6.42706 36.6214 6.42706C36.3586 6.42706 36.1349 6.44414 35.9494 6.47985V10.2751C36.0521 10.2907 36.24 10.2976 36.5131 10.2976C37.1517 10.2976 37.6445 10.1245 37.9916 9.7783C38.3388 9.43208 38.5139 8.92749 38.5139 8.26454Z" fill="white"/>
<path d="M44.059 9.03998C44.059 9.60279 43.8942 10.0639 43.5645 10.4257C43.219 10.7975 42.7612 10.983 42.1895 10.983C41.6385 10.983 41.1998 10.8053 40.8726 10.4482C40.5462 10.0919 40.3829 9.64238 40.3829 9.10053C40.3829 8.53384 40.5509 8.06884 40.8885 7.70787C41.2261 7.34689 41.6799 7.16602 42.2516 7.16602C42.8026 7.16602 43.2453 7.34379 43.5805 7.7001C43.8989 8.04633 44.059 8.49347 44.059 9.03998ZM43.1935 9.06637C43.1935 8.72869 43.1187 8.43913 42.9698 8.1977C42.7946 7.90582 42.5454 7.75988 42.2214 7.75988C41.8862 7.75988 41.6314 7.90582 41.4562 8.1977C41.3065 8.43913 41.2325 8.73334 41.2325 9.08112C41.2325 9.41881 41.3073 9.70836 41.4562 9.94979C41.6369 10.2417 41.8885 10.3876 42.2134 10.3876C42.5319 10.3876 42.7819 10.2393 42.9618 9.94203C43.1163 9.69594 43.1935 9.40406 43.1935 9.06637Z" fill="white"/>
<path d="M50.3136 7.24023L49.1392 10.8997H48.3749L47.8884 9.3106C47.765 8.91391 47.6647 8.51956 47.5866 8.12831H47.5715C47.4991 8.53043 47.3987 8.92401 47.2698 9.3106L46.753 10.8997H45.9799L44.8756 7.24023H45.7331L46.1575 8.9799C46.2602 9.39133 46.3446 9.78336 46.4123 10.1544H46.4274C46.4895 9.84857 46.5922 9.45887 46.7371 8.98766L47.2698 7.24101H47.9497L48.4601 8.9504C48.5835 9.36727 48.6838 9.76861 48.761 10.1552H48.7841C48.8407 9.7787 48.9258 9.37736 49.0389 8.9504L49.4943 7.24101H50.3136V7.24023Z" fill="white"/>
<path d="M54.639 10.9001H53.8046V8.80412C53.8046 8.15825 53.553 7.83531 53.0482 7.83531C52.8006 7.83531 52.6007 7.92381 52.4455 8.10158C52.2918 8.27935 52.2138 8.48894 52.2138 8.72882V10.8993H51.3794V8.28633C51.3794 7.96495 51.369 7.6164 51.3491 7.23912H52.0824L52.1214 7.81124H52.1445C52.2417 7.63347 52.3866 7.48676 52.5768 7.36954C52.803 7.23291 53.0562 7.16382 53.3332 7.16382C53.6836 7.16382 53.975 7.27405 54.2067 7.49529C54.4949 7.76622 54.639 8.17067 54.639 8.70786V10.9001Z" fill="white"/>
<path d="M56.9397 10.9003H56.1061V5.56177H56.9397V10.9003Z" fill="white"/>
<path d="M61.8527 9.03998C61.8527 9.60279 61.6879 10.0639 61.3582 10.4257C61.0127 10.7975 60.5541 10.983 59.9832 10.983C59.4314 10.983 58.9927 10.8053 58.6663 10.4482C58.3399 10.0919 58.1766 9.64238 58.1766 9.10053C58.1766 8.53384 58.3446 8.06884 58.6822 7.70787C59.0198 7.34689 59.4736 7.16602 60.0445 7.16602C60.5963 7.16602 61.0382 7.34379 61.3742 7.7001C61.6926 8.04633 61.8527 8.49347 61.8527 9.03998ZM60.9864 9.06637C60.9864 8.72869 60.9116 8.43913 60.7627 8.1977C60.5883 7.90582 60.3383 7.75988 60.015 7.75988C59.6791 7.75988 59.4243 7.90582 59.2499 8.1977C59.1002 8.43913 59.0262 8.73334 59.0262 9.08112C59.0262 9.41881 59.101 9.70836 59.2499 9.94979C59.4306 10.2417 59.6822 10.3876 60.0071 10.3876C60.3256 10.3876 60.5748 10.2393 60.7547 9.94203C60.91 9.69594 60.9864 9.40406 60.9864 9.06637Z" fill="white"/>
<path d="M65.8902 10.9H65.141L65.0789 10.4784H65.0558C64.7994 10.8146 64.434 10.983 63.9595 10.983C63.6052 10.983 63.3185 10.872 63.1028 10.6516C62.9069 10.4513 62.809 10.2021 62.809 9.90632C62.809 9.45917 63 9.11838 63.3846 8.88239C63.7684 8.6464 64.3082 8.53073 65.0033 8.53617V8.46785C65.0033 7.98578 64.7437 7.74513 64.2238 7.74513C63.8536 7.74513 63.5271 7.83595 63.2453 8.01605L63.0757 7.48197C63.4244 7.27159 63.8552 7.16602 64.3631 7.16602C65.344 7.16602 65.8361 7.6706 65.8361 8.67978V10.0274C65.8361 10.3931 65.8544 10.6842 65.8902 10.9ZM65.024 9.64238V9.07802C64.1036 9.06249 63.6434 9.30857 63.6434 9.81549C63.6434 10.0065 63.6959 10.1493 63.8034 10.2448C63.9109 10.3403 64.0478 10.3876 64.2111 10.3876C64.3942 10.3876 64.5654 10.3309 64.7214 10.2184C64.8783 10.105 64.9746 9.96143 65.0104 9.78522C65.0192 9.74562 65.024 9.69749 65.024 9.64238Z" fill="white"/>
<path d="M70.6333 10.9003H69.8928L69.8538 10.3127H69.8307C69.5943 10.7598 69.1914 10.9834 68.6253 10.9834C68.173 10.9834 67.7964 10.8103 67.4979 10.464C67.1993 10.1178 67.0504 9.66834 67.0504 9.1164C67.0504 8.52409 67.212 8.04434 67.5369 7.67793C67.8514 7.33636 68.2367 7.16558 68.6953 7.16558C69.1993 7.16558 69.5521 7.33093 69.7527 7.66241H69.7686V5.56177H70.6038V9.91442C70.6038 10.2707 70.6134 10.5991 70.6333 10.9003ZM69.7686 9.35705V8.74688C69.7686 8.64131 69.7607 8.55592 69.7455 8.49071C69.6985 8.29508 69.5974 8.13051 69.4438 7.99776C69.2885 7.86502 69.1014 7.79826 68.8856 7.79826C68.5743 7.79826 68.3307 7.91858 68.1515 8.16001C67.974 8.40143 67.884 8.70962 67.884 9.08612C67.884 9.44787 67.9692 9.74131 68.1404 9.96721C68.3211 10.2079 68.5648 10.3282 68.8697 10.3282C69.1436 10.3282 69.3626 10.228 69.529 10.027C69.6898 9.84145 69.7686 9.61788 69.7686 9.35705Z" fill="white"/>
<path d="M77.7678 9.03998C77.7678 9.60279 77.603 10.0639 77.2734 10.4257C76.9278 10.7975 76.4708 10.983 75.8984 10.983C75.3482 10.983 74.9095 10.8053 74.5815 10.4482C74.255 10.0919 74.0918 9.64238 74.0918 9.10053C74.0918 8.53384 74.2598 8.06884 74.5974 7.70787C74.935 7.34689 75.3888 7.16602 75.9613 7.16602C76.5114 7.16602 76.9549 7.34379 77.2893 7.7001C77.6078 8.04633 77.7678 8.49347 77.7678 9.03998ZM76.9032 9.06637C76.9032 8.72869 76.8283 8.43913 76.6794 8.1977C76.5035 7.90582 76.2551 7.75988 75.9302 7.75988C75.5958 7.75988 75.341 7.90582 75.1651 8.1977C75.0154 8.43913 74.9413 8.73334 74.9413 9.08112C74.9413 9.41881 75.0162 9.70836 75.1651 9.94979C75.3458 10.2417 75.5974 10.3876 75.9222 10.3876C76.2407 10.3876 76.4915 10.2393 76.6715 9.94203C76.8251 9.69594 76.9032 9.40406 76.9032 9.06637Z" fill="white"/>
<path d="M82.2558 10.9001H81.4221V8.80412C81.4221 8.15825 81.1705 7.83531 80.665 7.83531C80.4173 7.83531 80.2175 7.92381 80.063 8.10158C79.9086 8.27935 79.8313 8.48894 79.8313 8.72882V10.8993H78.9961V8.28633C78.9961 7.96495 78.9866 7.6164 78.9667 7.23912H79.6992L79.7382 7.81124H79.7613C79.8592 7.63347 80.0041 7.48676 80.1936 7.36954C80.4205 7.23291 80.6729 7.16382 80.9508 7.16382C81.3003 7.16382 81.5917 7.27405 81.8234 7.49529C82.1124 7.76622 82.2558 8.17067 82.2558 8.70786V10.9001Z" fill="white"/>
<path d="M87.8702 7.8501H86.9514V9.6278C86.9514 10.0796 87.1146 10.3055 87.4379 10.3055C87.5876 10.3055 87.7118 10.2931 87.8097 10.2675L87.8312 10.8846C87.6664 10.9452 87.4498 10.9754 87.1831 10.9754C86.8535 10.9754 86.5971 10.8776 86.4116 10.682C86.2253 10.4864 86.1329 10.1572 86.1329 9.69534V7.8501H85.5844V7.24071H86.1329V6.57L86.9506 6.32935V7.23993H87.8694V7.8501H87.8702Z" fill="white"/>
<path d="M92.2883 10.9003H91.4531V8.81985C91.4531 8.16389 91.2015 7.83552 90.6975 7.83552C90.3106 7.83552 90.0462 8.02571 89.9013 8.40609C89.8766 8.48605 89.8623 8.58386 89.8623 8.69875V10.8995H89.0287V5.56177H89.8623V7.76721H89.8782C90.141 7.36586 90.5176 7.16558 91.0056 7.16558C91.3512 7.16558 91.637 7.27581 91.8639 7.49706C92.1466 7.77264 92.2883 8.18252 92.2883 8.72437V10.9003Z" fill="white"/>
<path d="M96.845 8.89754C96.845 9.04348 96.8339 9.16613 96.814 9.26627H94.3115C94.3227 9.62802 94.4421 9.90361 94.6738 10.0946C94.8856 10.2654 95.1587 10.3507 95.4931 10.3507C95.8633 10.3507 96.2009 10.2933 96.5051 10.1776L96.6356 10.7428C96.2797 10.8934 95.8609 10.9687 95.376 10.9687C94.7948 10.9687 94.337 10.8018 94.0058 10.468C93.673 10.1342 93.5082 9.68625 93.5082 9.12421C93.5082 8.57227 93.6618 8.11271 93.9716 7.7463C94.2948 7.35505 94.7319 7.15942 95.2837 7.15942C95.8235 7.15942 96.2336 7.35505 96.5106 7.7463C96.7344 8.05681 96.845 8.44108 96.845 8.89754ZM96.0488 8.68716C96.0552 8.44573 96.0003 8.23769 95.8872 8.06225C95.7423 7.83635 95.5218 7.72301 95.2232 7.72301C94.9509 7.72301 94.7287 7.83324 94.5592 8.05449C94.4206 8.2307 94.3386 8.44108 94.3115 8.68716H96.0488Z" fill="white"/>
</svg>
