<svg width="146" height="42" viewBox="0 0 146 42" fill="none" xmlns="http://www.w3.org/2000/svg">
<path d="M140.023 42H5.59255C2.63642 42 0.215332 39.6362 0.215332 36.75V5.25C0.215332 2.36381 2.63642 2.21967e-06 5.59255 2.21967e-06H140.023C142.979 2.21967e-06 145.4 2.36381 145.4 5.25V36.75C145.4 39.6362 142.979 42 140.023 42Z" fill="black"/>
<path d="M140.023 0.841315C142.513 0.841315 144.538 2.81925 144.538 5.25V36.75C144.538 39.1808 142.513 41.1587 140.023 41.1587H5.59255C3.1029 41.1587 1.07703 39.1808 1.07703 36.75V5.25C1.07703 2.81925 3.1029 0.841315 5.59255 0.841315H140.023ZM140.023 2.21967e-06H5.59255C2.63642 2.21967e-06 0.215332 2.36381 0.215332 5.25V36.75C0.215332 39.6362 2.63642 42 5.59255 42H140.023C142.979 42 145.4 39.6362 145.4 36.75V5.25C145.4 2.36381 142.979 2.21967e-06 140.023 2.21967e-06Z" fill="#A6A6A6"/>
<path d="M51.2097 10.7561C51.2097 11.6328 50.9408 12.335 50.4112 12.8587C49.8022 13.4795 49.0091 13.7919 48.0371 13.7919C47.1082 13.7919 46.3151 13.4742 45.6644 12.8482C45.0125 12.2129 44.6871 11.4333 44.6871 10.5001C44.6871 9.56694 45.0125 8.78731 45.6644 8.15731C46.3151 7.526 47.1082 7.20837 48.0371 7.20837C48.4996 7.20837 48.9405 7.30156 49.3613 7.47481C49.7807 7.64937 50.1222 7.88562 50.3695 8.177L49.8076 8.73087C49.3761 8.23344 48.7886 7.988 48.0371 7.988C47.3596 7.988 46.7721 8.219 46.2734 8.68494C45.7801 9.15219 45.5327 9.75725 45.5327 10.5001C45.5327 11.243 45.7801 11.8533 46.2734 12.3206C46.7721 12.7812 47.3596 13.0175 48.0371 13.0175C48.7563 13.0175 49.3613 12.7812 49.8385 12.3153C50.1531 12.0069 50.3319 11.5816 50.3789 11.0382H48.0371V10.2796H51.1613C51.1989 10.4437 51.2097 10.6025 51.2097 10.7561Z" fill="white" stroke="white" stroke-width="0.16" stroke-miterlimit="10"/>
<path d="M56.1682 8.1256H53.2336V10.1206H55.8792V10.8792H53.2336V12.8742H56.1682V13.6473H52.4028V7.35254H56.1682V8.1256Z" fill="white" stroke="white" stroke-width="0.16" stroke-miterlimit="10"/>
<path d="M59.6634 13.6472H58.8326V8.12548H57.0326V7.35242H61.4648V8.12548H59.6634V13.6472Z" fill="white" stroke="white" stroke-width="0.16" stroke-miterlimit="10"/>
<path d="M64.672 13.6472V7.35248H65.5014V13.6472H64.672Z" fill="white" stroke="white" stroke-width="0.16" stroke-miterlimit="10"/>
<path d="M69.178 13.6472H68.354V8.12548H66.5472V7.35242H70.9848V8.12548H69.178V13.6472Z" fill="white" stroke="white" stroke-width="0.16" stroke-miterlimit="10"/>
<path d="M79.3741 12.8377C78.7383 13.4742 77.9505 13.7919 77.0109 13.7919C76.0658 13.7919 75.2781 13.4742 74.6422 12.8377C74.0077 12.2024 73.6918 11.4228 73.6918 10.5001C73.6918 9.57744 74.0077 8.79781 74.6422 8.16256C75.2781 7.526 76.0658 7.20837 77.0109 7.20837C77.9451 7.20837 78.7329 7.526 79.3688 8.16781C80.0087 8.80831 80.3246 9.58269 80.3246 10.5001C80.3246 11.4228 80.0087 12.2024 79.3741 12.8377ZM75.2565 12.3101C75.7351 12.7812 76.3172 13.0175 77.0109 13.0175C77.6991 13.0175 78.2866 12.7812 78.7598 12.3101C79.237 11.8389 79.479 11.2338 79.479 10.5001C79.479 9.76644 79.237 9.16137 78.7598 8.69019C78.2866 8.219 77.6991 7.98275 77.0109 7.98275C76.3172 7.98275 75.7351 8.219 75.2565 8.69019C74.7793 9.16137 74.5373 9.76644 74.5373 10.5001C74.5373 11.2338 74.7793 11.8389 75.2565 12.3101Z" fill="white" stroke="white" stroke-width="0.16" stroke-miterlimit="10"/>
<path d="M81.4948 13.6472V7.35242H82.503L85.6379 12.248H85.6742L85.6379 11.0379V7.35242H86.4673V13.6472H85.6016L82.3188 8.51004H82.2825L82.3188 9.72542V13.6472H81.4948Z" fill="white" stroke="white" stroke-width="0.16" stroke-miterlimit="10"/>
<path d="M73.4887 22.8402C70.9628 22.8402 68.8993 24.7171 68.8993 27.3067C68.8993 29.8752 70.9628 31.7718 73.4887 31.7718C76.02 31.7718 78.0836 29.8752 78.0836 27.3067C78.0836 24.7171 76.02 22.8402 73.4887 22.8402ZM73.4887 30.0131C72.1027 30.0131 70.9103 28.8961 70.9103 27.3067C70.9103 25.6962 72.1027 24.599 73.4887 24.599C74.8747 24.599 76.0725 25.6962 76.0725 27.3067C76.0725 28.8961 74.8747 30.0131 73.4887 30.0131ZM63.475 22.8402C60.9437 22.8402 58.8856 24.7171 58.8856 27.3067C58.8856 29.8752 60.9437 31.7718 63.475 31.7718C66.005 31.7718 68.0645 29.8752 68.0645 27.3067C68.0645 24.7171 66.005 22.8402 63.475 22.8402ZM63.475 30.0131C62.0877 30.0131 60.8913 28.8961 60.8913 27.3067C60.8913 25.6962 62.0877 24.599 63.475 24.599C64.861 24.599 66.0534 25.6962 66.0534 27.3067C66.0534 28.8961 64.861 30.0131 63.475 30.0131ZM51.5591 24.2092V26.1071H56.201C56.0652 27.1676 55.7022 27.9472 55.1457 28.4906C54.4682 29.1468 53.4129 29.8752 51.5591 29.8752C48.7025 29.8752 46.4655 27.6243 46.4655 24.8352C46.4655 22.0462 48.7025 19.7952 51.5591 19.7952C53.1037 19.7952 54.2275 20.3846 55.057 21.1484L56.4268 19.811C55.2667 18.7295 53.7234 17.8987 51.5591 17.8987C47.6418 17.8987 44.3496 21.0106 44.3496 24.8352C44.3496 28.6599 47.6418 31.7718 51.5591 31.7718C53.6764 31.7718 55.2667 31.0946 56.5169 29.8241C57.798 28.5732 58.1973 26.8145 58.1973 25.3944C58.1973 24.9534 58.1596 24.5478 58.0924 24.2092H51.5591ZM100.285 25.6805C99.907 24.6817 98.7415 22.8402 96.3674 22.8402C94.0149 22.8402 92.0562 24.6502 92.0562 27.3067C92.0562 29.8083 93.9947 31.7718 96.5933 31.7718C98.6944 31.7718 99.907 30.521 100.406 29.7926L98.8463 28.778C98.3261 29.5209 97.6176 30.0131 96.5933 30.0131C95.5756 30.0131 94.8457 29.5576 94.3778 28.6599L100.496 26.1884L100.285 25.6805ZM94.0472 27.1676C93.9947 25.4456 95.417 24.5636 96.436 24.5636C97.2345 24.5636 97.912 24.9534 98.1379 25.5112L94.0472 27.1676ZM89.0746 31.5001H91.0857V18.3751H89.0746V31.5001ZM85.781 23.8351H85.7138C85.2621 23.3127 84.4004 22.8402 83.3089 22.8402C81.0182 22.8402 78.9237 24.8037 78.9237 27.3211C78.9237 29.8241 81.0182 31.7718 83.3089 31.7718C84.4004 31.7718 85.2621 31.2954 85.7138 30.7572H85.781V31.3977C85.781 33.1053 84.8467 34.0227 83.3398 34.0227C82.1111 34.0227 81.3489 33.1565 81.0343 32.4281L79.2854 33.1407C79.7895 34.3246 81.1244 35.7815 83.3398 35.7815C85.6977 35.7815 87.6873 34.427 87.6873 31.1313V23.1119H85.781V23.8351ZM83.4809 30.0131C82.095 30.0131 80.9348 28.8804 80.9348 27.3211C80.9348 25.7474 82.095 24.599 83.4809 24.599C84.8467 24.599 85.9235 25.7474 85.9235 27.3211C85.9235 28.8804 84.8467 30.0131 83.4809 30.0131ZM109.7 18.3751H104.89V31.5001H106.896V26.5271H109.7C111.928 26.5271 114.112 24.9534 114.112 22.4504C114.112 19.9488 111.922 18.3751 109.7 18.3751ZM109.753 24.7014H106.896V20.2008H109.753C111.25 20.2008 112.105 21.4149 112.105 22.4504C112.105 23.4663 111.25 24.7014 109.753 24.7014ZM122.151 22.8153C120.702 22.8153 119.195 23.4401 118.575 24.8247L120.355 25.5532C120.738 24.8247 121.443 24.5885 122.187 24.5885C123.228 24.5885 124.283 25.1988 124.299 26.2764V26.4142C123.936 26.2094 123.159 25.9062 122.204 25.9062C120.287 25.9062 118.333 26.9366 118.333 28.8594C118.333 30.6181 119.903 31.7508 121.669 31.7508C123.018 31.7508 123.763 31.1562 124.231 30.4646H124.299V31.4791H126.236V26.4444C126.236 24.1173 124.457 22.8153 122.151 22.8153ZM121.909 30.0078C121.253 30.0078 120.339 29.6902 120.339 28.8961C120.339 27.8802 121.479 27.4904 122.466 27.4904C123.349 27.4904 123.763 27.6807 124.299 27.9314C124.142 29.1468 123.071 30.0078 121.909 30.0078ZM133.294 23.1027L130.989 28.7924H130.92L128.537 23.1027H126.374L129.955 31.0539L127.911 35.4783H130.007L135.526 23.1027H133.294ZM115.215 31.5001H117.226V18.3751H115.215V31.5001Z" fill="white"/>
<path d="M11.4395 7.91522C11.1236 8.23809 10.9408 8.74078 10.9408 9.39178V32.6125C10.9408 33.2635 11.1236 33.7662 11.4395 34.0891L11.5175 34.16L24.8449 21.1531V20.846L11.5175 7.83909L11.4395 7.91522Z" fill="url(#paint0_linear_23_11588)"/>
<path d="M29.2807 25.4904L24.8431 21.1525V20.8454L29.2861 16.5076L29.3855 16.564L34.6471 19.487C36.1487 20.3165 36.1487 21.6815 34.6471 22.5162L29.3855 25.4339L29.2807 25.4904Z" fill="url(#paint1_linear_23_11588)"/>
<path d="M29.3887 25.4337L24.8463 20.9987L11.4409 34.0883C11.9397 34.6002 12.753 34.6619 13.6778 34.15L29.3887 25.4337Z" fill="url(#paint2_linear_23_11588)"/>
<path d="M29.3887 16.5647L13.6778 7.84839C12.753 7.34176 11.9397 7.40345 11.4409 7.91532L24.8463 20.9996L29.3887 16.5647Z" fill="url(#paint3_linear_23_11588)"/>
<defs>
<linearGradient id="paint0_linear_23_11588" x1="23.6616" y1="32.8544" x2="6.04514" y2="14.811" gradientUnits="userSpaceOnUse">
<stop stop-color="#00A0FF"/>
<stop offset="0.0066" stop-color="#00A1FF"/>
<stop offset="0.2601" stop-color="#00BEFF"/>
<stop offset="0.5122" stop-color="#00D2FF"/>
<stop offset="0.7604" stop-color="#00DFFF"/>
<stop offset="1" stop-color="#00E3FF"/>
</linearGradient>
<linearGradient id="paint1_linear_23_11588" x1="36.6025" y1="20.9975" x2="10.5801" y2="20.9975" gradientUnits="userSpaceOnUse">
<stop stop-color="#FFE000"/>
<stop offset="0.4087" stop-color="#FFBD00"/>
<stop offset="0.7754" stop-color="#FFA500"/>
<stop offset="1" stop-color="#FF9C00"/>
</linearGradient>
<linearGradient id="paint2_linear_23_11588" x1="26.9187" y1="18.5878" x2="3.02932" y2="-5.88039" gradientUnits="userSpaceOnUse">
<stop stop-color="#FF3A44"/>
<stop offset="1" stop-color="#C31162"/>
</linearGradient>
<linearGradient id="paint3_linear_23_11588" x1="8.0665" y1="41.8146" x2="18.7342" y2="30.8886" gradientUnits="userSpaceOnUse">
<stop stop-color="#32A071"/>
<stop offset="0.0685" stop-color="#2DA771"/>
<stop offset="0.4762" stop-color="#15CF74"/>
<stop offset="0.8009" stop-color="#06E775"/>
<stop offset="1" stop-color="#00F076"/>
</linearGradient>
</defs>
</svg>
