<svg width="108" height="32" viewBox="0 0 108 32" fill="none" xmlns="http://www.w3.org/2000/svg">
<path d="M103.363 31.5256H3.9755C1.78997 31.5256 0 29.778 0 27.6442V4.35551C0 2.22168 1.78997 0.47406 3.9755 0.47406H103.363C105.549 0.47406 107.338 2.22168 107.338 4.35551V27.6442C107.338 29.778 105.549 31.5256 103.363 31.5256Z" fill="black"/>
<path d="M103.363 1.09606C105.204 1.09606 106.701 2.5584 106.701 4.35551V27.6442C106.701 29.4413 105.204 30.9036 103.363 30.9036H3.9755C2.13484 30.9036 0.637074 29.4413 0.637074 27.6442V4.35551C0.637074 2.5584 2.13484 1.09606 3.9755 1.09606H103.363ZM103.363 0.47406H3.9755C1.78997 0.47406 0 2.22168 0 4.35551V27.6442C0 29.778 1.78997 31.5256 3.9755 31.5256H103.363C105.549 31.5256 107.338 29.778 107.338 27.6442V4.35551C107.338 2.22168 105.549 0.47406 103.363 0.47406Z" fill="#A6A6A6"/>
<path d="M37.7017 8.42635C37.7017 9.07456 37.5029 9.5937 37.1113 9.98087C36.6611 10.4399 36.0747 10.6708 35.3561 10.6708C34.6694 10.6708 34.083 10.436 33.6019 9.97311C33.1199 9.50346 32.8794 8.92706 32.8794 8.23713C32.8794 7.54721 33.1199 6.97081 33.6019 6.50504C34.083 6.03829 34.6694 5.80347 35.3561 5.80347C35.698 5.80347 36.024 5.87236 36.3351 6.00045C36.6452 6.12951 36.8976 6.30417 37.0805 6.51959L36.6651 6.92909C36.346 6.56132 35.9117 6.37986 35.3561 6.37986C34.8552 6.37986 34.4209 6.55065 34.0522 6.89512C33.6874 7.24057 33.5045 7.68791 33.5045 8.23713C33.5045 8.78636 33.6874 9.23758 34.0522 9.58302C34.4209 9.92362 34.8552 10.0983 35.3561 10.0983C35.8879 10.0983 36.3351 9.92362 36.6879 9.57914C36.9205 9.35111 37.0527 9.03671 37.0875 8.63498H35.3561V8.07411H37.6659C37.6937 8.19541 37.7017 8.31282 37.7017 8.42635Z" fill="white" stroke="white" stroke-width="0.16" stroke-miterlimit="10"/>
<path d="M41.3667 6.48145H39.1971V7.9564H41.153V8.51727H39.1971V9.99222H41.3667V10.5638H38.5829V5.90991H41.3667V6.48145Z" fill="white" stroke="white" stroke-width="0.16" stroke-miterlimit="10"/>
<path d="M43.9512 10.5638H43.337V6.48145H42.0062V5.90991H45.283V6.48145H43.9512V10.5638Z" fill="white" stroke="white" stroke-width="0.16" stroke-miterlimit="10"/>
<path d="M47.6542 10.5638V5.90991H48.2674V10.5638H47.6542Z" fill="white" stroke="white" stroke-width="0.16" stroke-miterlimit="10"/>
<path d="M50.986 10.5638H50.3768V6.48145H49.041V5.90991H52.3218V6.48145H50.986V10.5638Z" fill="white" stroke="white" stroke-width="0.16" stroke-miterlimit="10"/>
<path d="M58.5246 9.96535C58.0545 10.436 57.4721 10.6708 56.7774 10.6708C56.0787 10.6708 55.4963 10.436 55.0262 9.96535C54.557 9.49569 54.3235 8.9193 54.3235 8.23713C54.3235 7.55497 54.557 6.97857 55.0262 6.50892C55.4963 6.03829 56.0787 5.80347 56.7774 5.80347C57.4681 5.80347 58.0505 6.03829 58.5206 6.5128C58.9937 6.98634 59.2273 7.55885 59.2273 8.23713C59.2273 8.9193 58.9937 9.49569 58.5246 9.96535ZM55.4804 9.57526C55.8342 9.92362 56.2645 10.0983 56.7774 10.0983C57.2862 10.0983 57.7206 9.92362 58.0704 9.57526C58.4232 9.2269 58.6021 8.77957 58.6021 8.23713C58.6021 7.6947 58.4232 7.24737 58.0704 6.89901C57.7206 6.55065 57.2862 6.37598 56.7774 6.37598C56.2645 6.37598 55.8342 6.55065 55.4804 6.89901C55.1275 7.24737 54.9486 7.6947 54.9486 8.23713C54.9486 8.77957 55.1275 9.2269 55.4804 9.57526Z" fill="white" stroke="white" stroke-width="0.16" stroke-miterlimit="10"/>
<path d="M60.0913 10.5638V5.90991H60.8367L63.1544 9.52936H63.1813L63.1544 8.63469V5.90991H63.7677V10.5638H63.1276L60.7006 6.76577H60.6737L60.7006 7.66433V10.5638H60.0913Z" fill="white" stroke="white" stroke-width="0.16" stroke-miterlimit="10"/>
<path d="M54.1732 17.3605C52.3057 17.3605 50.7801 18.7481 50.7801 20.6626C50.7801 22.5616 52.3057 23.9638 54.1732 23.9638C56.0447 23.9638 57.5703 22.5616 57.5703 20.6626C57.5703 18.7481 56.0447 17.3605 54.1732 17.3605ZM54.1732 22.6635C53.1485 22.6635 52.267 21.8377 52.267 20.6626C52.267 19.472 53.1485 18.6607 54.1732 18.6607C55.1979 18.6607 56.0835 19.472 56.0835 20.6626C56.0835 21.8377 55.1979 22.6635 54.1732 22.6635ZM46.7699 17.3605C44.8984 17.3605 43.3768 18.7481 43.3768 20.6626C43.3768 22.5616 44.8984 23.9638 46.7699 23.9638C48.6403 23.9638 50.1629 22.5616 50.1629 20.6626C50.1629 18.7481 48.6403 17.3605 46.7699 17.3605ZM46.7699 22.6635C45.7442 22.6635 44.8596 21.8377 44.8596 20.6626C44.8596 19.472 45.7442 18.6607 46.7699 18.6607C47.7945 18.6607 48.6761 19.472 48.6761 20.6626C48.6761 21.8377 47.7945 22.6635 46.7699 22.6635ZM37.9602 18.3725V19.7757H41.392C41.2916 20.5597 41.0233 21.1361 40.6118 21.5379C40.1109 22.023 39.3307 22.5616 37.9602 22.5616C35.8482 22.5616 34.1944 20.8974 34.1944 18.8354C34.1944 16.7734 35.8482 15.1092 37.9602 15.1092C39.1021 15.1092 39.933 15.5449 40.5462 16.1097L41.559 15.1209C40.7013 14.3213 39.5603 13.707 37.9602 13.707C35.064 13.707 32.63 16.0078 32.63 18.8354C32.63 21.663 35.064 23.9638 37.9602 23.9638C39.5255 23.9638 40.7013 23.4631 41.6256 22.5238C42.5727 21.599 42.8679 20.2987 42.8679 19.2488C42.8679 18.9227 42.8401 18.6229 42.7904 18.3725H37.9602ZM73.9841 19.4603C73.7048 18.7219 72.8432 17.3605 71.088 17.3605C69.3487 17.3605 67.9006 18.6986 67.9006 20.6626C67.9006 22.5121 69.3338 23.9638 71.2549 23.9638C72.8084 23.9638 73.7048 23.039 74.0736 22.5005L72.9207 21.7504C72.536 22.2996 72.0123 22.6635 71.2549 22.6635C70.5026 22.6635 69.9629 22.3268 69.617 21.663L74.1402 19.8359L73.9841 19.4603ZM69.3725 20.5597C69.3338 19.2866 70.3853 18.6345 71.1387 18.6345C71.729 18.6345 72.2299 18.9227 72.3969 19.3351L69.3725 20.5597ZM65.6962 23.7629H67.183V14.0593H65.6962V23.7629ZM63.2612 18.096H63.2115C62.8776 17.7098 62.2405 17.3605 61.4335 17.3605C59.7399 17.3605 58.1915 18.8121 58.1915 20.6733C58.1915 22.5238 59.7399 23.9638 61.4335 23.9638C62.2405 23.9638 62.8776 23.6115 63.2115 23.2137H63.2612V23.6872C63.2612 24.9497 62.5705 25.6279 61.4563 25.6279C60.5479 25.6279 59.9844 24.9875 59.7518 24.4489L58.4588 24.9759C58.8315 25.8511 59.8184 26.9282 61.4563 26.9282C63.1996 26.9282 64.6705 25.9268 64.6705 23.4902V17.5613H63.2612V18.096ZM61.5607 22.6635C60.536 22.6635 59.6783 21.8261 59.6783 20.6733C59.6783 19.5098 60.536 18.6607 61.5607 18.6607C62.5705 18.6607 63.3666 19.5098 63.3666 20.6733C63.3666 21.8261 62.5705 22.6635 61.5607 22.6635ZM80.9452 14.0593H77.3891V23.7629H78.872V20.0862H80.9452C82.5921 20.0862 84.2071 18.9227 84.2071 17.0723C84.2071 15.2228 82.5881 14.0593 80.9452 14.0593ZM80.984 18.7364H78.872V15.4091H80.984C82.0912 15.4091 82.7233 16.3066 82.7233 17.0723C82.7233 17.8233 82.0912 18.7364 80.984 18.7364ZM90.1505 17.342C89.0791 17.342 87.965 17.8039 87.5068 18.8276L88.8227 19.3662C89.1059 18.8276 89.6267 18.653 90.1773 18.653C90.9466 18.653 91.7268 19.1042 91.7387 19.9009V20.0028C91.4704 19.8514 90.8959 19.6272 90.1892 19.6272C88.772 19.6272 87.3279 20.389 87.3279 21.8105C87.3279 23.1108 88.4887 23.9482 89.7937 23.9482C90.7915 23.9482 91.3421 23.5087 91.688 22.9973H91.7387V23.7474H93.1709V20.0251C93.1709 18.3046 91.855 17.342 90.1505 17.342ZM89.9716 22.6596C89.4866 22.6596 88.8107 22.4248 88.8107 21.8377C88.8107 21.0866 89.6535 20.7984 90.3831 20.7984C91.036 20.7984 91.3421 20.9392 91.7387 21.1245C91.6224 22.023 90.8303 22.6596 89.9716 22.6596ZM98.3887 17.5545L96.6842 21.761H96.6335L94.8714 17.5545H93.2722L95.9199 23.433L94.4092 26.7041H95.9587L100.039 17.5545H98.3887ZM85.0221 23.7629H86.5089V14.0593H85.0221V23.7629Z" fill="white"/>
<path d="M8.29793 6.32589C8.06437 6.5646 7.9292 6.93625 7.9292 7.41755V24.5852C7.9292 25.0665 8.06437 25.4381 8.29793 25.6768L8.35557 25.7292L18.2088 16.113V15.8859L8.35557 6.26961L8.29793 6.32589Z" fill="url(#paint0_linear_23_11237)"/>
<path d="M21.4885 19.3196L18.2078 16.1125V15.8855L21.4925 12.6784L21.5661 12.7202L25.4561 14.8811C26.5662 15.4944 26.5662 16.5036 25.4561 17.1207L21.5661 19.2779L21.4885 19.3196Z" fill="url(#paint1_linear_23_11237)"/>
<path d="M21.5677 19.2777L18.2094 15.9988L8.29846 25.6762C8.66719 26.0547 9.26848 26.1003 9.95227 25.7218L21.5677 19.2777Z" fill="url(#paint2_linear_23_11237)"/>
<path d="M21.5677 12.7207L9.95227 6.27649C9.26848 5.90193 8.66719 5.94754 8.29846 6.32598L18.2094 15.9995L21.5677 12.7207Z" fill="url(#paint3_linear_23_11237)"/>
<defs>
<linearGradient id="paint0_linear_23_11237" x1="17.334" y1="24.764" x2="4.30973" y2="11.4241" gradientUnits="userSpaceOnUse">
<stop stop-color="#00A0FF"/>
<stop offset="0.0066" stop-color="#00A1FF"/>
<stop offset="0.2601" stop-color="#00BEFF"/>
<stop offset="0.5122" stop-color="#00D2FF"/>
<stop offset="0.7604" stop-color="#00DFFF"/>
<stop offset="1" stop-color="#00E3FF"/>
</linearGradient>
<linearGradient id="paint1_linear_23_11237" x1="26.9017" y1="15.9979" x2="7.66275" y2="15.9979" gradientUnits="userSpaceOnUse">
<stop stop-color="#FFE000"/>
<stop offset="0.4087" stop-color="#FFBD00"/>
<stop offset="0.7754" stop-color="#FFA500"/>
<stop offset="1" stop-color="#FF9C00"/>
</linearGradient>
<linearGradient id="paint2_linear_23_11237" x1="19.7415" y1="14.2164" x2="2.07957" y2="-3.87357" gradientUnits="userSpaceOnUse">
<stop stop-color="#FF3A44"/>
<stop offset="1" stop-color="#C31162"/>
</linearGradient>
<linearGradient id="paint3_linear_23_11237" x1="5.80368" y1="31.3885" x2="13.6905" y2="23.3106" gradientUnits="userSpaceOnUse">
<stop stop-color="#32A071"/>
<stop offset="0.0685" stop-color="#2DA771"/>
<stop offset="0.4762" stop-color="#15CF74"/>
<stop offset="0.8009" stop-color="#06E775"/>
<stop offset="1" stop-color="#00F076"/>
</linearGradient>
</defs>
</svg>
